<svg height="510" width="720" xmlns="http://www.w3.org/2000/svg">
<rect height="510" fill="#555" width="720"></rect>
<text fill="#7f7" font-family="Courier New" font-size="12" xml:space="preserve">
<tspan x="10" y="26">4 megabytes installed</tspan>
<tspan x="10" y="42"></tspan>
<tspan x="10" y="58">node_modules</tspan>
<tspan x="10" y="74">├─┬ karma-webpack@2.0.3 </tspan>
<tspan x="10" y="90">│ ├── async@0.9.2 </tspan>
<tspan x="10" y="106">│ ├─┬ loader-utils@0.2.17 </tspan>
<tspan x="10" y="122">│ │ ├── big.js@3.1.3 </tspan>
<tspan x="10" y="138">│ │ ├── emojis-list@2.1.0 </tspan>
<tspan x="10" y="154">│ │ ├── json5@0.5.1 </tspan>
<tspan x="10" y="170">│ │ └── object-assign@4.1.1 </tspan>
<tspan x="10" y="186">│ ├── lodash@3.10.1 </tspan>
<tspan x="10" y="202">│ ├─┬ source-map@0.1.43 </tspan>
<tspan x="10" y="218">│ │ └── amdefine@1.0.1 </tspan>
<tspan x="10" y="234">│ ├── UNMET PEER DEPENDENCY webpack@1 || ^2.1.0-beta || ^2.2.0-rc.0</tspan>
<tspan x="10" y="250">│ └─┬ webpack-dev-middleware@1.10.1 </tspan>
<tspan x="10" y="266">│   ├─┬ memory-fs@0.4.1 </tspan>
<tspan x="10" y="282">│   │ ├─┬ errno@0.1.4 </tspan>
<tspan x="10" y="298">│   │ │ └── prr@0.0.0 </tspan>
<tspan x="10" y="314">│   │ └─┬ readable-stream@2.2.9 </tspan>
<tspan x="10" y="330">│   │   ├── buffer-shims@1.0.0 </tspan>
<tspan x="10" y="346">│   │   ├── core-util-is@1.0.2 </tspan>
<tspan x="10" y="362">│   │   ├── inherits@2.0.3 </tspan>
<tspan x="10" y="378">│   │   ├── isarray@1.0.0 </tspan>
<tspan x="10" y="394">│   │   ├── process-nextick-args@1.0.7 </tspan>
<tspan x="10" y="410">│   │   ├── string_decoder@1.0.0 </tspan>
<tspan x="10" y="426">│   │   └── util-deprecate@1.0.2 </tspan>
<tspan x="10" y="442">│   ├── mime@1.3.4 </tspan>
<tspan x="10" y="458">│   ├── path-is-absolute@1.0.1 </tspan>
<tspan x="10" y="474">│   └── range-parser@1.2.0 </tspan>
<tspan x="10" y="490">└── UNMET PEER DEPENDENCY webpack@^1.1.0 || ^2 || ^2.1.0-beta.0 || ^2.2.0-rc.0</tspan>
</text>
</svg>
